/* XPM */
static char * close_pressed_xpm[] = {
"14 23 6 1",
"       c None",
".      c #000000",
"+      c #000000",
"@      c #000000",
"#      c #000000",
"$      c #000000",
"              ",
"              ",
"              ",
"              ",
"..............",
"............++",
"..@@@@@@##$#++",
"..@@@@@##$#$++",
"..@@@#@###$$++",
"..@@#@###$#$++",
"..@@@###$#$$++",
"..@####$#$$$++",
"..####$#$$$$++",
"..#$#$#$$$$+++",
"..$#$#$$$$+$++",
"..#$$$$$$+$+++",
".+++++++++++++",
".+++++++++++++",
"              ",
"              ",
"              ",
"              ",
"              "};
