/* XPM */
static char * title_4_inactive_xpm[] = {
"16 23 5 1",
" 	c None",
".	c #000000",
"+	c #000000",
"@	c #000000",
"#	c #000000",
"................",
"+++++++++++++++@",
"##############.@",
"##############.@",
"##############.@",
"##############.@",
"##############.@",
"##############.@",
"##############.@",
"##############.@",
"##############.@",
"##############.@",
"##############.@",
"##############.@",
"##############.@",
"##############.@",
"##############.@",
"##############.@",
"##############.@",
"##############.@",
"##############++",
"################",
"................"};
