/* XPM */
static char * title_4_active_xpm[] = {
"16 23 9 1",
" 	c None",
".	c #000000",
"+	c #000000",
"@	c #000000",
"#	c #000000",
"$	c #000000",
"%	c #000000",
"&	c #000000",
"*	c #000000",
"................",
"+++++++++++++++@",
"##############$@",
"##############$@",
"##############$@",
"##############$@",
"##############$@",
"##############$@",
"##############$@",
"##############$@",
"##############$@",
"##############$@",
"##############$@",
"##############$@",
"##############$@",
"##############$@",
"##############$@",
"##############$@",
"##############$@",
"##############$@",
"%%%%%%%%%%%%%%&&",
"%%%%%%%%%%%%%%%%",
"****************"};
