/* XPM */
static char * top_left_active_xpm[] = {
"25 44 7 1",
" 	c None",
".	c #000000",
"+	c #000000",
"@	c #000000",
"#	c #000000",
"$	c #000000",
"%	c #000000",
".........................",
".++++++++++++++++++++++++",
".+@@@@@@@@@@@@@@@@@@@@@@@",
".+@@@@@@@@@@@@@@@@@@@@@@@",
".+@@@@@@@@@@@@@@@@@@@@@@@",
".+@@@@@@@@@@@@@@@@@@@@@@@",
".+@@@@@@@@@@@@@@@@@@@@@@@",
".+@@@@@@@@@@@@@@@@@@@@@@@",
".+@@@@@@@@@@@@@@@@@@@@@@@",
".+@@@@@@@@@@@@@@@@@@@@@@@",
".+@@@@@@@@@@@@@@@@@@@@@@@",
".+@@@@@@@@@@@@@@@@@@@@@@@",
".+@@@@@@@@@@@@@@@@@@@@@@@",
".+@@@@@@@@@@@@@@@@@@@@@@@",
".+@@@@@@@@@@@@@@@@@@@@@@@",
".+@@@@@@@@@@@@@@@@@@@@@@@",
".+@@@@@@@@@@@@@@@@@@@@@@@",
".+@@@@@@@@@@@@@@@@@@@@@@@",
".+@@@@@@@@@@@@@@@@@@@@@@@",
".+@@@@@@@@@@@@@@@@@@@@@@@",
".#$$$$$$$$$$$$$$$$$$$$$$$",
".#$$$$$$$$$$$$$$$$$$$$$$$",
".#$%%%%%%%%%%%%%%%%%%%%%%",
".#$%                     ",
".#$%                     ",
".#$%                     ",
".#$%                     ",
".#$%                     ",
".#$%                     ",
".#$%                     ",
".#$%                     ",
".#$%                     ",
".#$%                     ",
".#$%                     ",
".#$%                     ",
".#$%                     ",
".#$%                     ",
".#$%                     ",
".#$%                     ",
".#$%                     ",
".#$%                     ",
".#$%                     ",
".#$%                     ",
".#$%                     "};
